<?xml version="1.0" encoding="UTF-8"?>
<svg width="31px" height="28px" viewBox="0 0 31 28" version="1.1" xmlns="http://www.w3.org/2000/svg" xmlns:xlink="http://www.w3.org/1999/xlink">
    <!-- Generator: Sketch 46.2 (44496) - http://www.bohemiancoding.com/sketch -->
    <title>comment</title>
    <desc>Created with Sketch.</desc>
    <defs></defs>
    <g id="Hi-Fi" stroke="none" stroke-width="1" fill="none" fill-rule="evenodd">
        <g id="blog-not-subscribed" transform="translate(-398.000000, -165.000000)" fill="#DC4E3C">
            <g id="comment" transform="translate(398.000000, 165.000000)">
                <g id="Group">
                    <path d="M27.6473684,14.2210526 C27.3526316,13.9263158 26.8736842,13.9263158 26.6157895,14.2210526 L17.2210526,23.6157895 C17.0736842,23.7631579 17,23.9473684 17,24.1315789 L17,27.2631579 C17,27.6684211 17.3315789,28 17.7368421,28 L20.8684211,28 C21.0526316,28 21.2368421,27.9263158 21.3842105,27.7789474 L30.7789474,18.3842105 C31.0736842,18.0894737 31.0736842,17.6473684 30.7789474,17.3526316 L27.6473684,14.2210526 Z M21.4210526,25.6789474 L19.3210526,23.6157895 L25.3263158,17.6105263 L27.4263158,19.7105263 L27.4263158,19.7105263 L21.4210526,25.6789474 C21.4210526,25.6789474 21.4210526,25.6789474 21.4210526,25.6789474 Z M18.5105263,24.8684211 L20.1684211,26.5263158 L18.5105263,26.5263158 L18.5105263,24.8684211 Z M28.4210526,18.6421053 L28.4210526,18.6421053 L26.3210526,16.5421053 L27.0947368,15.7684211 L29.1947368,17.8684211 L28.4210526,18.6421053 Z" id="Shape" fill-rule="nonzero"></path>
                    <path d="M3.27179487,19.4450704 L1.48717949,25.0478873 C1.41282051,25.3042254 1.48717949,25.5971831 1.67307692,25.7802817 C1.85897436,25.9267606 2.04487179,26 2.23076923,26 C2.30512821,26 2.37948718,26 2.45384615,25.9633803 L10.4846154,23.3267606 C10.5217949,23.3267606 10.5589744,23.3633803 10.5961538,23.3633803 C11.8602564,23.656338 13.1615385,23.8028169 14.5,23.8028169 C14.9089744,23.8028169 15.2435897,23.4732394 15.2435897,23.0704225 C15.2435897,22.6676056 14.9089744,22.3380282 14.5,22.3380282 C13.2730769,22.3380282 12.0833333,22.1915493 10.9307692,21.9352113 C10.8192308,21.8985915 10.6333333,21.8619718 10.6333333,21.8619718 C10.4846154,21.8253521 10.3358974,21.8253521 10.224359,21.8619718 L3.34615385,24.0957746 L4.83333333,19.4450704 C4.90769231,19.1887324 4.83333333,18.8957746 4.6474359,18.7126761 C4.6474359,18.7126761 4.38717949,18.4929577 4.27564103,18.3464789 C2.45384615,16.515493 1.48717949,14.2816901 1.48717949,11.9014085 C1.48717949,6.15211268 7.32435897,1.46478873 14.5,1.46478873 C21.675641,1.46478873 27.5128205,6.15211268 27.5128205,11.9014085 C27.5128205,12.3042254 27.8474359,12.6338028 28.2564103,12.6338028 C28.6653846,12.6338028 29,12.3042254 29,11.9014085 C29,5.34647887 22.4935897,0 14.5,0 C6.50641026,0 0,5.34647887 0,11.9014085 C0,14.6112676 1.1525641,17.284507 3.23461538,19.371831 C3.23461538,19.4084507 3.27179487,19.4084507 3.27179487,19.4450704 Z" id="Shape" fill-rule="nonzero"></path>
                </g>
            </g>
        </g>
    </g>
</svg>