<?xml version="1.0" encoding="UTF-8" standalone="no"?>
<!DOCTYPE svg PUBLIC "-//W3C//DTD SVG 1.1//EN" "http://www.w3.org/Graphics/SVG/1.1/DTD/svg11.dtd">
<svg version="1.1" xmlns="http://www.w3.org/2000/svg" xmlns:xlink="http://www.w3.org/1999/xlink" preserveAspectRatio="xMidYMid meet" viewBox="0 0 640 640" width="640" height="640"><defs><path d="M0.51 1.33C0.51 1.54 0.59 1.75 0.76 1.92C2.03 3.17 12.21 13.17 13.48 14.42C13.82 14.74 14.35 14.74 14.68 14.42C15.96 13.17 26.14 3.17 27.41 1.92C27.74 1.59 27.74 1.06 27.41 0.74C27.08 0.41 26.54 0.41 26.21 0.74C25.4 1.53 21.36 5.5 14.08 12.65C6.81 5.5 2.76 1.53 1.96 0.74C1.62 0.41 1.09 0.41 0.76 0.74C0.59 0.9 0.51 1.11 0.51 1.33Z" id="b24gFgL9nQ"></path></defs><g><g><g><use xlink:href="#b24gFgL9nQ" opacity="1" fill="#dc4e3c" fill-opacity="1"></use><g><use xlink:href="#b24gFgL9nQ" opacity="1" fill-opacity="0" stroke="#000000" stroke-width="1" stroke-opacity="0"></use></g></g></g></g></svg>