<?xml version="1.0" encoding="UTF-8"?>
<svg width="21px" height="20px" viewBox="0 0 21 20" version="1.1" xmlns="http://www.w3.org/2000/svg" xmlns:xlink="http://www.w3.org/1999/xlink">
    <!-- Generator: Sketch 46.2 (44496) - http://www.bohemiancoding.com/sketch -->
    <title>exit</title>
    <desc>Created with Sketch.</desc>
    <defs></defs>
    <g id="Hi-Fi" stroke="none" stroke-width="1" fill="none" fill-rule="evenodd">
        <g id="buy-overlay" transform="translate(-897.000000, -752.000000)" fill-rule="nonzero" fill="#DC4E3C">
            <g id="exit" transform="translate(893.000000, 747.000000)">
                <path d="M1.72495522,15.8886828 L13.6037431,15.8886828 L13.6037431,27.7674707 C13.6037431,28.2366828 13.9838643,28.6159555 14.4522279,28.6159555 C14.9205916,28.6159555 15.3007128,28.2366828 15.3007128,27.7674707 L15.3007128,15.8886828 L27.1795007,15.8886828 C27.6478643,15.8886828 28.0279855,15.5094101 28.0279855,15.0401979 C28.0279855,14.5709858 27.6478643,14.1917131 27.1795007,14.1917131 L15.3007128,14.1917131 L15.3007128,2.31292522 C15.3007128,1.8437131 14.9205916,1.46444037 14.4522279,1.46444037 C13.9838643,1.46444037 13.6037431,1.8437131 13.6037431,2.31292522 L13.6037431,14.1917131 L1.72495522,14.1917131 C1.25659158,14.1917131 0.876470371,14.5709858 0.876470371,15.0401979 C0.876470371,15.5094101 1.25659158,15.8886828 1.72495522,15.8886828 Z" id="Shape" transform="translate(14.452228, 15.040198) rotate(45.000000) translate(-14.452228, -15.040198) "></path>
            </g>
        </g>
    </g>
</svg>