<?xml version="1.0" encoding="UTF-8"?>
<svg width="28px" height="20px" viewBox="0 0 28 20" version="1.1" xmlns="http://www.w3.org/2000/svg" xmlns:xlink="http://www.w3.org/1999/xlink">
    <!-- Generator: Sketch 46.2 (44496) - http://www.bohemiancoding.com/sketch -->
    <title>HAMBURGER MENU</title>
    <desc>Created with Sketch.</desc>
    <defs></defs>
    <g id="Design-Process-Playground" stroke="none" stroke-width="1" fill="none" fill-rule="evenodd">
        <g id="mobile-style-tile-v4-copy" transform="translate(-279.000000, -651.000000)" fill-rule="nonzero" fill="#DC4E3C">
            <g id="Iconography-Copy-2" transform="translate(47.000000, 648.000000)">
                <g id="HAMBURGER-MENU" transform="translate(232.000000, 3.000000)">
                    <path d="M1.41442424,1.66666667 L26.8689697,1.66666667 C27.3373333,1.66666667 27.7174545,1.29416667 27.7174545,0.833333333 C27.7174545,0.3725 27.3373333,0 26.8689697,0 L1.41442424,0 C0.946060606,0 0.565939394,0.3725 0.565939394,0.833333333 C0.565939394,1.29416667 0.945212121,1.66666667 1.41442424,1.66666667 Z" id="Shape"></path>
                    <path d="M1.41442424,20 L26.8689697,20 C27.3373333,20 27.7174545,19.6275 27.7174545,19.1666667 C27.7174545,18.7058333 27.3373333,18.3333333 26.8689697,18.3333333 L1.41442424,18.3333333 C0.946060606,18.3333333 0.565939394,18.7058333 0.565939394,19.1666667 C0.565939394,19.6275 0.945212121,20 1.41442424,20 Z" id="Shape"></path>
                    <path d="M1.41442424,10.8333333 L26.8689697,10.8333333 C27.3373333,10.8333333 27.7174545,10.4608333 27.7174545,10 C27.7174545,9.53916667 27.3373333,9.16666667 26.8689697,9.16666667 L1.41442424,9.16666667 C0.946060606,9.16666667 0.565939394,9.53916667 0.565939394,10 C0.565939394,10.4608333 0.945212121,10.8333333 1.41442424,10.8333333 Z" id="Shape"></path>
                </g>
            </g>
        </g>
    </g>
</svg>