<?xml version="1.0" encoding="UTF-8"?>
<svg width="29px" height="28px" viewBox="0 0 29 28" version="1.1" xmlns="http://www.w3.org/2000/svg" xmlns:xlink="http://www.w3.org/1999/xlink">
    <!-- Generator: Sketch 46.2 (44496) - http://www.bohemiancoding.com/sketch -->
    <title>PLUS</title>
    <desc>Created with Sketch.</desc>
    <defs></defs>
    <g id="Hi-Fi" stroke="none" stroke-width="1" fill="none" fill-rule="evenodd">
        <g id="bear-story-enlarged" transform="translate(-1242.000000, -91.000000)" fill-rule="nonzero" fill="#DC4E3C">
            <g id="Group-3" transform="translate(1033.000000, 30.000000)">
                <g id="PLUS" transform="translate(209.000000, 61.000000)">
                    <path d="M1.02651515,14.875 L13.2765152,14.875 L13.2765152,27.125 C13.2765152,27.608875 13.6685152,28 14.1515152,28 C14.6345152,28 15.0265152,27.608875 15.0265152,27.125 L15.0265152,14.875 L27.2765152,14.875 C27.7595152,14.875 28.1515152,14.483875 28.1515152,14 C28.1515152,13.516125 27.7595152,13.125 27.2765152,13.125 L15.0265152,13.125 L15.0265152,0.875 C15.0265152,0.391125 14.6345152,0 14.1515152,0 C13.6685152,0 13.2765152,0.391125 13.2765152,0.875 L13.2765152,13.125 L1.02651515,13.125 C0.543515152,13.125 0.151515152,13.516125 0.151515152,14 C0.151515152,14.483875 0.543515152,14.875 1.02651515,14.875 Z" id="Shape"></path>
                </g>
            </g>
        </g>
    </g>
</svg>